<?xml version="1.0" encoding="UTF-8" standalone="no"?>
<!-- Created with Inkscape (http://www.inkscape.org/) -->

<svg
   xmlns:dc="http://purl.org/dc/elements/1.1/"
   xmlns:cc="http://creativecommons.org/ns#"
   xmlns:rdf="http://www.w3.org/1999/02/22-rdf-syntax-ns#"
   xmlns:svg="http://www.w3.org/2000/svg"
   xmlns="http://www.w3.org/2000/svg"
   xmlns:sodipodi="http://sodipodi.sourceforge.net/DTD/sodipodi-0.dtd"
   xmlns:inkscape="http://www.inkscape.org/namespaces/inkscape"
   width="8"
   height="13"
   viewBox="0 0 2.1166666 3.4395834"
   version="1.1"
   id="svg8"
   inkscape:version="0.92.2 2405546, 2018-03-11"
   sodipodi:docname="drag.svg">
  <defs
     id="defs2" />
  <sodipodi:namedview
     id="base"
     pagecolor="#ffffff"
     bordercolor="#666666"
     borderopacity="1.0"
     inkscape:pageopacity="0.0"
     inkscape:pageshadow="2"
     inkscape:zoom="64"
     inkscape:cx="2.5570118"
     inkscape:cy="7.2023096"
     inkscape:document-units="mm"
     inkscape:current-layer="layer1"
     showgrid="false"
     units="px"
     inkscape:window-width="1920"
     inkscape:window-height="1004"
     inkscape:window-x="0"
     inkscape:window-y="46"
     inkscape:window-maximized="1" />
  <metadata
     id="metadata5">
    <rdf:RDF>
      <cc:Work
         rdf:about="">
        <dc:format>image/svg+xml</dc:format>
        <dc:type
           rdf:resource="http://purl.org/dc/dcmitype/StillImage" />
        <dc:title></dc:title>
      </cc:Work>
    </rdf:RDF>
  </metadata>
  <g
     inkscape:label="Layer 1"
     inkscape:groupmode="layer"
     id="layer1"
     transform="translate(0,-293.5604)">
    <path
       style="opacity:1;fill:#000000;fill-opacity:1;stroke:none;stroke-width:0.80000871;stroke-linecap:butt;stroke-linejoin:miter;stroke-miterlimit:4;stroke-dasharray:none;stroke-dashoffset:0;stroke-opacity:1;paint-order:markers stroke fill"
       d="M 0.79375,293.95729 A 0.396875,0.39688365 0 0 1 0.39687498,294.35415 0.396875,0.39688365 0 0 1 0,293.95729 0.396875,0.39688365 0 0 1 0.39687498,293.5604 0.396875,0.39688365 0 0 1 0.79375,293.95729 Z"
       id="path825"
       inkscape:connector-curvature="0" />
    <path
       inkscape:connector-curvature="0"
       id="path862"
       d="m 2.1166667,293.95729 a 0.396875,0.39688365 0 0 1 -0.396875,0.39686 0.396875,0.39688365 0 0 1 -0.396875,-0.39686 0.396875,0.39688365 0 0 1 0.396875,-0.39689 0.396875,0.39688365 0 0 1 0.396875,0.39689 z"
       style="opacity:1;fill:#000000;fill-opacity:1;stroke:none;stroke-width:0.80000871;stroke-linecap:butt;stroke-linejoin:miter;stroke-miterlimit:4;stroke-dasharray:none;stroke-dashoffset:0;stroke-opacity:1;paint-order:markers stroke fill" />
    <path
       inkscape:connector-curvature="0"
       id="path864"
       d="M 0.79375,295.28021 A 0.396875,0.39688365 0 0 1 0.39687498,295.67707 0.396875,0.39688365 0 0 1 0,295.28021 0.396875,0.39688365 0 0 1 0.39687498,294.88332 0.396875,0.39688365 0 0 1 0.79375,295.28021 Z"
       style="opacity:1;fill:#000000;fill-opacity:1;stroke:none;stroke-width:0.80000871;stroke-linecap:butt;stroke-linejoin:miter;stroke-miterlimit:4;stroke-dasharray:none;stroke-dashoffset:0;stroke-opacity:1;paint-order:markers stroke fill" />
    <path
       style="opacity:1;fill:#000000;fill-opacity:1;stroke:none;stroke-width:0.80000871;stroke-linecap:butt;stroke-linejoin:miter;stroke-miterlimit:4;stroke-dasharray:none;stroke-dashoffset:0;stroke-opacity:1;paint-order:markers stroke fill"
       d="m 2.1166667,295.28021 a 0.396875,0.39688365 0 0 1 -0.396875,0.39686 0.396875,0.39688365 0 0 1 -0.396875,-0.39686 0.396875,0.39688365 0 0 1 0.396875,-0.39689 0.396875,0.39688365 0 0 1 0.396875,0.39689 z"
       id="path866"
       inkscape:connector-curvature="0" />
    <path
       style="opacity:1;fill:#000000;fill-opacity:1;stroke:none;stroke-width:0.80000871;stroke-linecap:butt;stroke-linejoin:miter;stroke-miterlimit:4;stroke-dasharray:none;stroke-dashoffset:0;stroke-opacity:1;paint-order:markers stroke fill"
       d="M 0.79375,296.60312 A 0.396875,0.39688365 0 0 1 0.39687498,296.99998 0.396875,0.39688365 0 0 1 0,296.60312 0.396875,0.39688365 0 0 1 0.39687498,296.20623 0.396875,0.39688365 0 0 1 0.79375,296.60312 Z"
       id="path868"
       inkscape:connector-curvature="0" />
    <path
       inkscape:connector-curvature="0"
       id="path870"
       d="m 2.1166667,296.60312 a 0.396875,0.39688365 0 0 1 -0.396875,0.39686 0.396875,0.39688365 0 0 1 -0.396875,-0.39686 0.396875,0.39688365 0 0 1 0.396875,-0.39689 0.396875,0.39688365 0 0 1 0.396875,0.39689 z"
       style="opacity:1;fill:#000000;fill-opacity:1;stroke:none;stroke-width:0.80000871;stroke-linecap:butt;stroke-linejoin:miter;stroke-miterlimit:4;stroke-dasharray:none;stroke-dashoffset:0;stroke-opacity:1;paint-order:markers stroke fill" />
  </g>
</svg>
